<svg version="1.1" class="site-logo" width="111px" height="45px" xmlns="http://www.w3.org/2000/svg" xmlns:xlink="http://www.w3.org/1999/xlink" viewBox="0 0 305.3 138" style="enable-background:new 0 0 305.3 138;" xml:space="preserve">
<style type="text/css">
              .st0{display:none;}
              .st1{display:inline;}
              .st2{font-family:'HelveticaNeue-Medium';}
              .st3{font-size:22.3355px;}
              .st4{fill:#000000;}
              .st5{fill:#AAAAAA;}
              .st6{display:inline;fill:#FFFFFF;}
            </style>
<g id="BORN_logo__x28_outline_x29_">
<g>
<path class="st4 str-d" d="M72.8,80.3c0-6.8-3.4-13.8-11.9-18.1c5.4-3.8,7.8-9.5,7.7-15.1C68.5,36.7,60,26,47.4,26H10.3v73.3h54.8
			C70.2,94.4,72.8,87.4,72.8,80.3z M29.7,43.8h15c3.1,0,4.8,2.7,4.8,5.5c0,2.9-1.6,5.7-5,5.7H29.7V43.8z M47.2,87.7H29.7V73.1h17.5
			c4.1,0,6.2,3.7,6.2,7.3C53.4,84.1,51.3,87.7,47.2,87.7z"></path>
<path class="st4 str-u" d="M159.1,66.2c0-23.6-18.7-41.5-41.6-41.5S76,42.6,76,66.2c0,14,6.5,25.8,16.5,33.1h49.8
			C152.5,92,159.1,80.1,159.1,66.2z M117,88.8c-10.9-0.1-21.5-7.6-21.5-22.6s10.6-22.4,21.5-22.7c11.1-0.2,22.3,7.3,22.3,22.7
			C139.4,81.4,128.1,88.9,117,88.8z"></path>
<path class="st4 str-d" d="M185.5,79.3h3.2L201,99.4h22.7l-14.9-22c10.2-4.9,15.3-14.9,15.5-24.4c0.2-13.3-9-26.9-27.4-26.9h-30.9v73.3
			h19.3V79.3z M185.5,44.6h11.1c6,0,9,4.6,8.9,8.9c-0.1,4-3.2,8.2-8.9,8.2h-11.1V44.6z"></path>
<polygon class="st4 str-d" points="251,67.2 273.6,99.4 293.8,99.4 293.8,26 274.4,26 274.4,66.1 246.7,26 231.6,26 231.6,99.4
			251,99.4 		"></polygon>
</g>
<g class="str-d">
<path class="st5" d="M91.5,108.6h7c1.1,0,2,0.2,2.8,0.5c0.7,0.3,1.3,0.7,1.6,1.2c0.4,0.5,0.6,1,0.8,1.6s0.2,1.1,0.2,1.6
			s-0.1,1-0.2,1.6c-0.1,0.6-0.4,1.1-0.8,1.6c-0.4,0.5-0.9,0.9-1.6,1.2s-1.6,0.5-2.8,0.5h-4.2v6.1h-2.8L91.5,108.6L91.5,108.6z
			 M94.3,116.2h4.1c0.3,0,0.6,0,1-0.1s0.6-0.2,0.9-0.4c0.3-0.2,0.5-0.5,0.7-0.8s0.3-0.8,0.3-1.3c0-0.5-0.1-1-0.2-1.3
			s-0.4-0.6-0.6-0.8c-0.2-0.2-0.5-0.3-0.9-0.4s-0.7-0.1-1-0.1h-4.1L94.3,116.2L94.3,116.2z"></path>
<path class="st5" d="M116.2,122c0,0.3,0,0.5,0.1,0.7s0.2,0.2,0.5,0.2c0.1,0,0.2,0,0.3,0s0.2,0,0.4,0v1.8c-0.1,0-0.2,0.1-0.4,0.1
			s-0.3,0.1-0.4,0.1s-0.3,0-0.5,0.1s-0.3,0-0.4,0c-0.5,0-1-0.1-1.3-0.3c-0.3-0.2-0.6-0.6-0.7-1.1c-0.5,0.5-1.1,0.9-1.9,1.1
			c-0.7,0.2-1.5,0.3-2.1,0.3c-0.5,0-1-0.1-1.5-0.2c-0.5-0.1-0.9-0.4-1.3-0.6c-0.4-0.3-0.7-0.6-0.9-1c-0.2-0.4-0.3-0.9-0.3-1.5
			c0-0.7,0.1-1.3,0.4-1.7c0.3-0.5,0.6-0.8,1-1c0.4-0.2,0.9-0.4,1.4-0.5s1.1-0.2,1.6-0.3c0.5-0.1,0.9-0.1,1.3-0.2s0.8-0.1,1.1-0.2
			c0.3-0.1,0.6-0.2,0.8-0.4c0.2-0.2,0.3-0.5,0.3-0.8c0-0.3-0.1-0.6-0.2-0.8c-0.2-0.2-0.4-0.4-0.6-0.5c-0.2-0.1-0.5-0.2-0.8-0.2
			c-0.3,0-0.5-0.1-0.8-0.1c-0.7,0-1.3,0.1-1.8,0.5c-0.5,0.3-0.7,0.8-0.8,1.4h-2.5c0-0.7,0.2-1.4,0.5-1.9c0.3-0.5,0.7-0.9,1.2-1.2
			s1-0.5,1.6-0.6c0.6-0.1,1.2-0.2,1.9-0.2c0.6,0,1.1,0.1,1.7,0.2s1,0.3,1.5,0.6s0.8,0.6,1.1,1c0.3,0.4,0.4,0.9,0.4,1.5L116.2,122
			L116.2,122z M113.7,118.8c-0.4,0.2-0.9,0.4-1.4,0.5s-1.1,0.1-1.7,0.2c-0.3,0-0.5,0.1-0.8,0.2c-0.2,0.1-0.5,0.2-0.7,0.3
			s-0.4,0.3-0.5,0.6s-0.2,0.5-0.2,0.8c0,0.3,0.1,0.5,0.2,0.7c0.2,0.2,0.4,0.4,0.6,0.5s0.5,0.2,0.8,0.2s0.5,0.1,0.8,0.1
			c0.3,0,0.6,0,0.9-0.1c0.3-0.1,0.6-0.2,0.9-0.4c0.3-0.2,0.5-0.4,0.7-0.7c0.2-0.3,0.3-0.6,0.3-1L113.7,118.8L113.7,118.8z"></path>
<path class="st5" d="M119.4,113h2.4v2.2h0c0.1-0.3,0.2-0.6,0.4-0.9c0.2-0.3,0.5-0.6,0.8-0.8s0.6-0.4,1-0.6
			c0.4-0.1,0.8-0.2,1.1-0.2c0.3,0,0.5,0,0.6,0c0.1,0,0.2,0,0.4,0v2.5c-0.2,0-0.4-0.1-0.5-0.1s-0.4,0-0.5,0c-0.4,0-0.8,0.1-1.2,0.3
			s-0.7,0.4-1,0.8c-0.3,0.3-0.5,0.8-0.7,1.2s-0.2,1.1-0.2,1.7v5.5h-2.5L119.4,113L119.4,113z"></path>
<path class="st5" d="M127.5,113h1.9v-3.5h2.5v3.5h2.3v1.9H132v6.2c0,0.3,0,0.5,0,0.7s0.1,0.4,0.2,0.5s0.2,0.2,0.4,0.3
			c0.2,0.1,0.4,0.1,0.7,0.1c0.2,0,0.4,0,0.5,0c0.2,0,0.4,0,0.5-0.1v2c-0.3,0-0.6,0.1-0.8,0.1s-0.5,0-0.8,0c-0.7,0-1.2-0.1-1.6-0.2
			s-0.7-0.3-1-0.6c-0.2-0.2-0.4-0.5-0.5-0.9c-0.1-0.4-0.1-0.8-0.1-1.3v-6.8h-1.9L127.5,113L127.5,113z"></path>
<path class="st5" d="M149.5,124.9c-0.9,0-1.8-0.1-2.5-0.5c-0.7-0.3-1.3-0.7-1.8-1.3s-0.9-1.2-1.1-1.9c-0.3-0.7-0.4-1.6-0.4-2.5
			c0-0.9,0.1-1.7,0.4-2.4s0.6-1.4,1.1-1.9s1.1-1,1.8-1.3c0.7-0.3,1.5-0.5,2.5-0.5c0.9,0,1.8,0.1,2.5,0.5s1.3,0.7,1.8,1.3
			c0.5,0.5,0.9,1.2,1.1,1.9c0.3,0.8,0.4,1.6,0.4,2.4c0,0.9-0.1,1.7-0.4,2.5s-0.6,1.4-1.1,1.9s-1.1,1-1.8,1.3
			C151.2,124.7,150.4,124.9,149.5,124.9z M149.5,122.9c0.6,0,1.1-0.1,1.5-0.4s0.8-0.5,1-0.9s0.5-0.8,0.6-1.3c0.1-0.5,0.2-1,0.2-1.5
			c0-0.5-0.1-1-0.2-1.5s-0.3-0.9-0.6-1.3s-0.6-0.7-1-0.9s-0.9-0.4-1.5-0.4c-0.6,0-1.1,0.1-1.5,0.4s-0.8,0.5-1,0.9s-0.5,0.8-0.6,1.3
			s-0.2,1-0.2,1.5c0,0.5,0.1,1,0.2,1.5c0.1,0.5,0.3,0.9,0.6,1.3c0.3,0.4,0.6,0.7,1,0.9S148.9,122.9,149.5,122.9z"></path>
<path class="st5" d="M156.8,113h1.9v-1c0-0.7,0.1-1.3,0.3-1.8s0.4-0.8,0.7-1c0.3-0.2,0.6-0.4,1-0.5s0.8-0.1,1.2-0.1
			c0.8,0,1.4,0,1.8,0.2v2c-0.2,0-0.3-0.1-0.5-0.1c-0.2,0-0.4,0-0.7,0c-0.3,0-0.6,0.1-0.9,0.2c-0.2,0.2-0.4,0.5-0.4,1v1.2h2.2v1.9
			h-2.2v9.6h-2.5v-9.6h-1.9L156.8,113L156.8,113z"></path>
<path class="st5" d="M171,108.6h12.9v2.4h-5.1v13.5H176V111h-5V108.6z"></path>
<path class="st5" d="M185.4,119.5c0,0.5,0.1,0.9,0.2,1.3c0.1,0.4,0.3,0.8,0.6,1.1s0.6,0.6,1,0.8c0.4,0.2,0.9,0.3,1.4,0.3
			c0.7,0,1.3-0.2,1.8-0.5s0.8-0.8,1-1.4h2.4c-0.1,0.6-0.4,1.2-0.7,1.7c-0.3,0.5-0.7,0.9-1.2,1.2c-0.5,0.3-1,0.6-1.5,0.8
			s-1.2,0.3-1.8,0.3c-0.9,0-1.7-0.1-2.4-0.5c-0.7-0.3-1.3-0.7-1.8-1.2c-0.5-0.5-0.9-1.2-1.1-1.9c-0.2-0.7-0.4-1.6-0.4-2.5
			c0-0.8,0.1-1.6,0.4-2.3c0.3-0.7,0.6-1.4,1.1-1.9c0.5-0.6,1.1-1,1.8-1.3s1.5-0.5,2.3-0.5c0.9,0,1.7,0.2,2.5,0.6
			c0.7,0.4,1.3,0.9,1.8,1.5c0.5,0.6,0.8,1.3,1,2.2c0.2,0.8,0.3,1.6,0.2,2.5L185.4,119.5L185.4,119.5z M191.3,117.8
			c0-0.4-0.1-0.8-0.3-1.2s-0.3-0.7-0.6-1s-0.5-0.5-0.9-0.7s-0.7-0.3-1.2-0.3c-0.5,0-0.9,0.1-1.2,0.2c-0.4,0.2-0.7,0.4-0.9,0.6
			s-0.5,0.6-0.6,1s-0.2,0.8-0.3,1.2L191.3,117.8L191.3,117.8z"></path>
<path class="st5" d="M204.1,116.9c-0.1-0.7-0.4-1.2-0.9-1.6c-0.5-0.4-1.1-0.5-1.8-0.5c-0.3,0-0.7,0.1-1,0.2
			c-0.4,0.1-0.7,0.3-1,0.6c-0.3,0.3-0.6,0.7-0.8,1.3c-0.2,0.5-0.3,1.2-0.3,2.1c0,0.5,0.1,1,0.2,1.4c0.1,0.5,0.3,0.9,0.5,1.3
			s0.6,0.7,1,0.9c0.4,0.2,0.9,0.4,1.4,0.4c0.8,0,1.4-0.2,1.8-0.7s0.8-1.1,0.9-1.9h2.5c-0.2,1.5-0.8,2.6-1.7,3.5
			c-0.9,0.8-2.1,1.2-3.6,1.2c-0.9,0-1.7-0.1-2.4-0.5c-0.7-0.3-1.3-0.7-1.8-1.2c-0.5-0.5-0.8-1.2-1.1-1.9c-0.2-0.7-0.4-1.5-0.4-2.4
			c0-0.9,0.1-1.7,0.4-2.4c0.2-0.8,0.6-1.4,1.1-2c0.5-0.6,1.1-1,1.8-1.3s1.5-0.5,2.5-0.5c0.7,0,1.3,0.1,1.9,0.3s1.1,0.4,1.6,0.8
			c0.5,0.3,0.9,0.8,1.1,1.3s0.5,1.1,0.5,1.9L204.1,116.9L204.1,116.9z"></path>
<path class="st5" d="M209.2,108.6h2.5v5.9h0c0.3-0.5,0.8-1,1.4-1.3s1.3-0.5,2.1-0.5c1.3,0,2.3,0.3,3,1s1.1,1.6,1.1,3v7.9h-2.5
			v-7.3c0-0.9-0.2-1.6-0.6-2s-0.9-0.6-1.7-0.6c-0.4,0-0.8,0.1-1.2,0.2s-0.6,0.4-0.9,0.6s-0.4,0.6-0.6,1c-0.1,0.4-0.2,0.8-0.2,1.2
			v6.8h-2.5V108.6z"></path>
<path class="st5" d="M222.9,108.6h3.9l4.4,12.5h0l4.3-12.5h3.9v16h-2.7v-12.3h0l-4.4,12.3H230l-4.4-12.3h0v12.3h-2.7L222.9,108.6
			L222.9,108.6z"></path>
<path class="st5" d="M248.6,108.6h3.3l3.6,5.6l3.8-5.6h3.1l-5.3,7.7l5.7,8.3h-3.4l-4-6.1l-4,6.1h-3.2l5.7-8.3L248.6,108.6z"></path>
<path class="st5" d="M264.9,108.6h6.6c1.2,0,2.3,0.2,3.2,0.6s1.6,1,2.2,1.7s1,1.6,1.3,2.5c0.3,1,0.4,2,0.4,3.1s-0.1,2.1-0.4,3.1
			c-0.3,1-0.7,1.8-1.3,2.5c-0.6,0.7-1.3,1.3-2.2,1.7s-2,0.6-3.2,0.6h-6.6V108.6z M267.7,122.3h2.8c1.1,0,2-0.1,2.7-0.4
			s1.2-0.7,1.6-1.2s0.7-1.1,0.8-1.8s0.2-1.4,0.2-2.2s-0.1-1.5-0.2-2.2c-0.1-0.7-0.4-1.3-0.8-1.8s-0.9-0.9-1.6-1.2
			c-0.7-0.3-1.6-0.4-2.7-0.4h-2.8V122.3z"></path>
<path class="st5" d="M283.4,119.2c0,0.6,0.1,1.1,0.3,1.6s0.5,0.8,0.9,1.1s0.8,0.5,1.3,0.6c0.5,0.1,1,0.2,1.6,0.2
			c0.6,0,1.1-0.1,1.6-0.2c0.4-0.1,0.8-0.3,1-0.5c0.3-0.2,0.5-0.5,0.6-0.8c0.1-0.3,0.2-0.6,0.2-0.9c0-0.6-0.1-1.1-0.4-1.4
			s-0.6-0.5-0.9-0.6c-0.6-0.2-1.2-0.4-2-0.6c-0.8-0.2-1.7-0.4-2.8-0.7c-0.7-0.2-1.2-0.4-1.7-0.7c-0.5-0.3-0.8-0.6-1.1-1
			c-0.3-0.4-0.5-0.7-0.6-1.1c-0.1-0.4-0.2-0.8-0.2-1.2c0-0.8,0.2-1.5,0.5-2.1s0.8-1.1,1.3-1.5c0.5-0.4,1.2-0.7,1.9-0.9
			c0.7-0.2,1.4-0.3,2.1-0.3c0.8,0,1.6,0.1,2.4,0.3c0.7,0.2,1.4,0.5,1.9,1s1,1,1.3,1.6c0.3,0.6,0.5,1.4,0.5,2.2h-2.8
			c-0.1-1-0.4-1.8-1-2.2c-0.6-0.4-1.4-0.6-2.4-0.6c-0.3,0-0.7,0-1,0.1s-0.7,0.2-0.9,0.3c-0.3,0.2-0.5,0.4-0.7,0.6
			c-0.2,0.3-0.3,0.6-0.3,1c0,0.6,0.2,1,0.5,1.3c0.3,0.3,0.8,0.6,1.4,0.7c0.1,0,0.3,0.1,0.7,0.2c0.4,0.1,0.9,0.2,1.4,0.4
			c0.5,0.1,1,0.3,1.5,0.4c0.5,0.1,0.8,0.2,1,0.3c0.5,0.2,1,0.4,1.4,0.7s0.7,0.6,1,1c0.3,0.4,0.5,0.8,0.6,1.2
			c0.1,0.4,0.2,0.8,0.2,1.2c0,0.9-0.2,1.7-0.5,2.3s-0.8,1.1-1.4,1.5c-0.6,0.4-1.3,0.7-2,0.9c-0.8,0.2-1.5,0.3-2.3,0.3
			c-0.9,0-1.8-0.1-2.6-0.3c-0.8-0.2-1.5-0.6-2.1-1s-1.1-1-1.4-1.8c-0.4-0.7-0.5-1.6-0.6-2.6L283.4,119.2L283.4,119.2z"></path>
</g>
</g>
</svg>